<svg width="24" height="24" viewBox="0 0 24 24" fill="none" xmlns="http://www.w3.org/2000/svg">
  <!-- Wavy Circle -->
  <path d="M12 2c1 0 1.5.5 2.1 1 .5-.5 1.2-.9 2-.9s1.5.4 2 1c.5-.6 1.2-1 2-1 .9 0 1.7.4 2.2 1 .6-.5 1.1-.9 2-.9s1.5.5 2 1 .5 1.5.5 2.1c0 .8-.4 1.5-1 2.1-.6.5-.9 1.2-.9 2s.4 1.5 1 2 .5 1.5.5 2.2c0 .9-.4 1.7-1 2.2.5.5 1 1.1 1 2 .1.9-.4 1.7-1 2.2-.6.5-1.2.9-2 .9-.8 0-1.5-.5-2-1-.6.5-1.3.9-2.1.9-.8 0-1.5-.4-2-1-.6.6-1.2.9-2 .9-.9 0-1.7-.4-2.2-1-.5.6-1.2.9-2 .9-.9 0-1.7-.4-2.2-1-.5-.6-.9-1.2-.9-2.1 0-.9.4-1.5 1-2 .5-.6.9-1.2.9-2.1 0-.9-.4-1.6-1-2.1-.6-.5-1.2-.9-2.1-.9s-1.5.4-2 1c-.5-.6-.9-1.2-.9-2 .1-.9.5-1.6 1-2.1.6-.5 1.1-1.2 1-2 .1-.8-.4-1.6-.9-2.2-.5-.6-1.2-1-2.2-1-1 0-1.7.4-2.2 1-.6-.6-.9-1.2-.9-2.1S.4 1.5 1 1c.6-.5 1.3-1 2.2-1s1.5.5 2 .9c.6-.5 1.3-.9 2.2-.9z" fill="grey"/>

  <!-- Check Mark -->
  <path d="M9 12l2 2 4-4" stroke="white" stroke-width="2" fill="none" stroke-linecap="round" stroke-linejoin="round"/>
</svg>
